<svg width="171" height="178" viewBox="0 0 171 178" fill="none" xmlns="http://www.w3.org/2000/svg">
<path fill-rule="evenodd" clip-rule="evenodd" d="M148.624 1L106.227 18.2094C123.583 51.8799 143.573 129.361 85.3572 129.445C27.1854 129.329 47.1704 51.8731 64.5233 18.2095L22.1256 1.00007L11.9564 20.0868C20.0917 23.341 18.3708 31.977 16.4934 35.8882C-30.4056 132.987 39.8863 176.704 85.2626 176.848V176.849C85.2936 176.849 85.3247 176.849 85.3558 176.849C85.3997 176.849 85.4436 176.849 85.4874 176.849V176.848C130.864 176.704 201.156 132.987 154.257 35.8881C152.379 31.9769 150.658 23.3409 158.794 20.0868L148.624 1Z" fill="black"/>
<path d="M106.227 18.2094L106.086 17.8619L105.705 18.0163L105.893 18.3812L106.227 18.2094ZM148.624 1L148.955 0.82367L148.796 0.525443L148.483 0.652533L148.624 1ZM85.3572 129.445L85.3564 129.82L85.3577 129.82L85.3572 129.445ZM64.5233 18.2095L64.8566 18.3813L65.0447 18.0164L64.6643 17.862L64.5233 18.2095ZM22.1256 1.00007L22.2666 0.652602L21.9535 0.525512L21.7946 0.823739L22.1256 1.00007ZM11.9564 20.0868L11.6254 19.9105L11.4287 20.2797L11.8171 20.435L11.9564 20.0868ZM16.4934 35.8882L16.8311 36.0513L16.8315 36.0505L16.4934 35.8882ZM85.2626 176.848H85.6376V176.475L85.2638 176.473L85.2626 176.848ZM85.2626 176.849H84.8876V177.224H85.2626V176.849ZM85.3558 176.849L85.3564 176.474L85.3552 176.474L85.3558 176.849ZM85.4874 176.849V177.224H85.8624V176.849H85.4874ZM85.4874 176.848L85.4862 176.473L85.1124 176.475V176.848H85.4874ZM154.257 35.8881L153.919 36.0504L153.919 36.0512L154.257 35.8881ZM158.794 20.0868L158.933 20.435L159.321 20.2796L159.125 19.9104L158.794 20.0868ZM106.368 18.5569L148.765 1.34747L148.483 0.652533L106.086 17.8619L106.368 18.5569ZM85.3577 129.82C100.003 129.799 109.789 124.905 115.915 116.993C122.028 109.099 124.451 98.2591 124.506 86.4237C124.617 62.7546 115.256 34.9062 106.56 18.0376L105.893 18.3812C114.554 35.183 123.866 62.9104 123.756 86.4202C123.702 98.1744 121.292 108.824 115.322 116.534C109.365 124.226 99.8196 129.049 85.3566 129.07L85.3577 129.82ZM85.3579 129.07C70.906 129.041 61.368 124.214 55.417 116.52C49.4525 108.808 47.0463 98.1585 46.9934 86.4059C46.8877 62.8991 56.1974 35.1797 64.8566 18.3813L64.1899 18.0376C55.4963 34.9029 46.137 62.7433 46.2435 86.4093C46.2967 98.2431 48.7169 109.083 54.8238 116.979C60.9442 124.892 70.7224 129.791 85.3564 129.82L85.3579 129.07ZM64.6643 17.862L22.2666 0.652602L21.9845 1.34754L64.3822 18.5569L64.6643 17.862ZM21.7946 0.823739L11.6254 19.9105L12.2873 20.2632L22.4565 1.1764L21.7946 0.823739ZM11.8171 20.435C15.7411 22.0046 17.2689 24.8485 17.6071 27.784C17.9487 30.7483 17.0736 33.813 16.1553 35.7259L16.8315 36.0505C17.7907 34.0522 18.7146 30.8433 18.3522 27.6982C17.9865 24.5244 16.3071 21.4232 12.0957 19.7387L11.8171 20.435ZM16.1557 35.7251C-7.33933 84.3689 -1.51139 119.729 15.9752 142.952C33.4391 166.144 62.4748 177.151 85.2614 177.223L85.2638 176.473C62.6741 176.402 33.8758 165.478 16.5744 142.501C-0.704307 119.554 -6.57281 84.5063 16.8311 36.0513L16.1557 35.7251ZM85.6376 176.849V176.848H84.8876V176.849H85.6376ZM85.3552 176.474C85.3244 176.474 85.2935 176.474 85.2626 176.474V177.224C85.2938 177.224 85.325 177.224 85.3563 177.224L85.3552 176.474ZM85.3551 177.224C85.3992 177.224 85.4433 177.224 85.4874 177.224V176.474C85.4438 176.474 85.4002 176.474 85.3564 176.474L85.3551 177.224ZM85.8624 176.849V176.848H85.1124V176.849H85.8624ZM153.919 36.0512C177.323 84.5062 171.454 119.554 154.176 142.501C136.874 165.478 108.076 176.402 85.4862 176.473L85.4886 177.223C108.275 177.151 137.311 166.144 154.775 142.952C172.261 119.729 178.089 84.3688 154.594 35.725L153.919 36.0512ZM158.654 19.7386C154.443 21.4232 152.764 24.5244 152.398 27.6981C152.035 30.8432 152.959 34.0521 153.919 36.0504L154.595 35.7259C153.676 33.8129 152.801 30.7482 153.143 27.784C153.481 24.8484 155.009 22.0045 158.933 20.435L158.654 19.7386ZM148.293 1.17633L158.463 20.2631L159.125 19.9104L148.955 0.82367L148.293 1.17633Z" fill="black"/>
<circle cx="46.3926" cy="25.1348" r="4.21875" fill="white"/>
<circle cx="4.21875" cy="4.21875" r="4.21875" transform="matrix(-1 0 0 1 127.899 20.916)" fill="white"/>
<circle cx="31.5449" cy="19.0586" r="4.21875" fill="white"/>
<circle cx="4.21875" cy="4.21875" r="4.21875" transform="matrix(-1 0 0 1 142.75 14.8398)" fill="white"/>
</svg>
