<svg width="54" height="54" viewBox="0 0 54 54" fill="none" xmlns="http://www.w3.org/2000/svg">
<path d="M26.9993 26.9999C19.5437 27.0002 13.4998 33.0442 13.4998 40.4999C13.4998 47.9556 19.5437 53.9997 26.9993 53.9999V26.9999Z" fill="#FE5001"/>
<path d="M0 27.0001C0 27.0001 0 27 0 27.0001C0 19.5442 6.04414 13.4999 13.5 13.4999C20.9558 13.4999 26.9993 19.5441 26.9993 26.9999C26.9993 26.9999 26.9993 27 26.9993 26.9999L0 27.0001Z" fill="#FE5001"/>
<path d="M27.0007 26.9999C34.4563 26.9997 40.5002 20.9557 40.5002 13.5C40.5002 6.04429 34.4563 0.000232697 27.0007 0V26.9999Z" fill="#FE5001"/>
<path d="M27.0007 26.9999C27.0007 34.4557 33.0451 40.4998 40.5009 40.4998C47.9567 40.4998 54.0008 34.4557 54.0009 26.9999L27.0007 26.9999Z" fill="#FE5001"/>
</svg>
