<svg width="38" height="55" viewBox="0 0 38 55" fill="none" xmlns="http://www.w3.org/2000/svg">
<path d="M18.3237 48.922C14.9432 48.922 11.678 48.5378 8.52799 47.7695C5.37799 47.0012 2.785 46.0024 0.749023 44.7732L5.12829 34.8622C7.04902 35.9762 9.18104 36.879 11.5243 37.5704C13.906 38.2235 16.2109 38.55 18.439 38.55C19.7451 38.55 20.763 38.4732 21.4929 38.3195C22.2612 38.1274 22.8182 37.8777 23.164 37.5704C23.5097 37.2247 23.6826 36.8213 23.6826 36.3604C23.6826 35.6305 23.2792 35.0543 22.4725 34.6317C21.6658 34.2091 20.5902 33.8634 19.2457 33.5945C17.9396 33.2872 16.499 32.9799 14.924 32.6726C13.349 32.3268 11.7548 31.8851 10.1414 31.3473C8.5664 30.8095 7.10665 30.0988 5.76213 29.2152C4.45604 28.3317 3.39963 27.1793 2.59293 25.7579C1.78622 24.2982 1.38286 22.4927 1.38286 20.3415C1.38286 17.8445 2.07433 15.578 3.45726 13.5421C4.8786 11.4677 6.97219 9.81586 9.73805 8.58659C12.5423 7.35732 16.0188 6.74268 20.1676 6.74268C22.8951 6.74268 25.5841 7.03079 28.2347 7.60701C30.8853 8.18323 33.267 9.06677 35.3798 10.2576L31.2887 20.111C29.2911 19.1122 27.3512 18.3631 25.4688 17.8637C23.6249 17.3643 21.8195 17.1146 20.0524 17.1146C18.7463 17.1146 17.7091 17.2299 16.9408 17.4604C16.1725 17.6909 15.6155 17.9982 15.2698 18.3823C14.9624 18.7665 14.8088 19.189 14.8088 19.65C14.8088 20.3415 15.2121 20.8985 16.0188 21.321C16.8255 21.7052 17.882 22.0317 19.188 22.3006C20.5326 22.5695 21.9923 22.8576 23.5673 23.1649C25.1807 23.4723 26.7749 23.8948 28.3499 24.4326C29.9249 24.9704 31.3655 25.6811 32.6716 26.5646C34.0161 27.4482 35.0917 28.6006 35.8984 30.022C36.7051 31.4433 37.1085 33.2104 37.1085 35.3232C37.1085 37.7817 36.3978 40.0482 34.9765 42.1226C33.5935 44.1585 31.5191 45.8104 28.7533 47.078C25.9874 48.3073 22.5109 48.922 18.3237 48.922ZM15.5579 54.9146V47.4238H23.6826V54.9146H15.5579ZM15.5579 8.24085V0.75H23.6826V8.24085H15.5579Z" fill="#FE5001"/>
</svg>
