<svg width="54" height="56" viewBox="0 0 54 56" fill="none" xmlns="http://www.w3.org/2000/svg">
<path d="M23.8175 3.33789C24.5163 -0.431639 29.9175 -0.431643 30.6163 3.33789L31.1574 6.25676C31.6573 8.95322 34.9472 10.0222 36.9366 8.13453L39.09 6.09116C41.871 3.45228 46.2407 6.62705 44.5903 10.0874L43.3124 12.7668C42.1319 15.2421 44.1652 18.0408 46.8841 17.6829L49.8273 17.2955C53.6283 16.7953 55.2974 21.9321 51.9283 23.7616L49.3195 25.1782C46.9095 26.4868 46.9095 29.9461 49.3195 31.2547L51.9283 32.6713C55.2974 34.5008 53.6283 39.6376 49.8273 39.1374L46.8841 38.75C44.1652 38.3921 42.1319 41.1908 43.3124 43.6661L44.5903 46.3455C46.2407 49.8059 41.871 52.9806 39.09 50.3417L36.9366 48.2984C34.9472 46.4107 31.6573 47.4797 31.1574 50.1761L30.6163 53.095C29.9175 56.8645 24.5163 56.8645 23.8175 53.095L23.2764 50.1761C22.7766 47.4797 19.4866 46.4107 17.4972 48.2984L15.3438 50.3417C12.5628 52.9806 8.19313 49.8059 9.84348 46.3455L11.1214 43.6661C12.3019 41.1908 10.2686 38.3921 7.54967 38.75L4.60647 39.1374C0.805494 39.6376 -0.863584 34.5008 2.50552 32.6713L5.11432 31.2547C7.52435 29.9461 7.52435 26.4868 5.11432 25.1782L2.50552 23.7616C-0.863581 21.9321 0.805494 16.7953 4.60647 17.2955L7.54967 17.6829C10.2686 18.0408 12.3019 15.2421 11.1214 12.7668L9.84349 10.0874C8.19313 6.62705 12.5628 3.45228 15.3438 6.09116L17.4972 8.13453C19.4866 10.0222 22.7766 8.95323 23.2764 6.25676L23.8175 3.33789Z" fill="#FE5001"/>
</svg>
