<svg width="54" height="50" viewBox="0 0 54 50" fill="none" xmlns="http://www.w3.org/2000/svg">
<path fill-rule="evenodd" clip-rule="evenodd" d="M45.6894 37.4368C43.8539 37.4368 42.3658 35.5769 42.3658 33.2825V33.2823H37.3812V38.2674C35.0872 38.2677 33.2276 39.7556 33.2276 41.5908C33.2276 43.4261 35.0872 44.9139 37.3812 44.9142V49.8994H42.3658V49.8993C42.3658 47.605 43.8539 45.7451 45.6894 45.7451C47.525 45.7451 49.013 47.605 49.013 49.8993V49.8994H53.999V44.9142C51.7049 44.9139 49.8453 43.4261 49.8453 41.5908C49.8453 39.7555 51.7049 38.2677 53.999 38.2674V33.2823H49.013V33.2825C49.013 35.5769 47.525 37.4368 45.6894 37.4368Z" fill="#FE5001"/>
<path fill-rule="evenodd" clip-rule="evenodd" d="M29.0834 20.7955C30.9189 20.7955 32.4069 18.9356 32.4069 16.6412V16.6411H37.3922V21.6263C37.3923 21.6263 37.3924 21.6263 37.3926 21.6263C39.687 21.6263 41.547 23.1142 41.547 24.9497C41.547 26.7852 39.687 28.2731 37.3926 28.2731C37.3924 28.2731 37.3923 28.2731 37.3922 28.2731V33.2582H32.4069C32.4069 30.9639 30.9189 29.104 29.0834 29.104C27.2479 29.104 25.7599 30.9639 25.7598 33.2582H20.7744V28.2731C23.0686 28.2729 24.9284 26.785 24.9284 24.9497C24.9284 23.1143 23.0686 21.6265 20.7744 21.6263V16.6411H25.7598V16.6412C25.7598 18.9356 27.2478 20.7955 29.0834 20.7955Z" fill="#FE5001"/>
<path fill-rule="evenodd" clip-rule="evenodd" d="M49.0148 16.6171H54V11.6321C51.7059 11.6319 49.8462 10.144 49.8462 8.30874C49.8462 6.47344 51.7059 4.98561 54 4.98533V6.10352e-05H49.0148V0.000181198C49.0148 2.29452 47.5268 4.15445 45.6912 4.15445C43.8557 4.15445 42.3677 2.29452 42.3677 0.000181198V6.10352e-05H37.3822V4.98532C37.3822 4.98532 37.3821 4.98532 37.3821 4.98532C35.0876 4.98532 33.2276 6.47327 33.2276 8.30874C33.2276 10.1442 35.0876 11.6321 37.3821 11.6321C37.3821 11.6321 37.3822 11.6321 37.3822 11.6321V16.6171H42.3677C42.3677 16.6172 42.3677 16.6172 42.3677 16.6172C42.3677 18.9116 43.8557 20.7715 45.6912 20.7715C47.5268 20.7715 49.0148 18.9116 49.0148 16.6172C49.0148 16.6172 49.0148 16.6172 49.0148 16.6171Z" fill="#FE5001"/>
<path fill-rule="evenodd" clip-rule="evenodd" d="M9.13931 33.2823H4.1542V38.2673C1.85987 38.2674 0 39.7553 0 41.5907C0 43.4261 1.85987 44.914 4.1542 44.9141V49.8994H9.13931V49.8993C9.13931 47.605 10.6273 45.7451 12.4629 45.7451C14.2984 45.7451 15.7864 47.605 15.7864 49.8993V49.8994H20.772V44.9141C23.0661 44.9138 24.9257 43.426 24.9257 41.5907C24.9257 39.7555 23.0661 38.2676 20.772 38.2673V33.2823H15.7864C15.7864 35.5767 14.2984 37.4366 12.4629 37.4366C10.6273 37.4366 9.13932 35.5767 9.13931 33.2823Z" fill="#FE5001"/>
<path fill-rule="evenodd" clip-rule="evenodd" d="M15.7879 16.6172H20.7734V11.6321H20.7732C18.4787 11.6321 16.6187 10.1441 16.6187 8.30866C16.6187 6.47319 18.4787 4.98525 20.7732 4.98525H20.7734V0.000152588H15.7882C15.7882 2.29447 14.3002 4.15437 12.4647 4.15437C10.6291 4.15437 9.14112 2.29447 9.1411 0.000152588H4.15565V4.98525C4.15548 4.98525 4.15532 4.98525 4.15516 4.98525C1.86072 4.98525 0.000707626 6.47319 0.000707626 8.30866C0.000707626 10.1441 1.86072 11.6321 4.15516 11.6321C4.15532 11.6321 4.15548 11.6321 4.15565 11.6321V16.6172H9.14077C9.14077 16.6172 9.14077 16.6173 9.14077 16.6173C9.14077 18.9116 10.6288 20.7716 12.4643 20.7716C14.2999 20.7716 15.7879 18.9116 15.7879 16.6173C15.7879 16.6173 15.7879 16.6172 15.7879 16.6172Z" fill="#FE5001"/>
</svg>
