<svg width="719" height="719" viewBox="0 0 719 719" fill="none" xmlns="http://www.w3.org/2000/svg">
<g clip-path="url(#clip0_1324_21)">
<rect width="719" height="719" fill="#0437FF"/>
<rect x="5.12451" y="5.12451" width="92.4067" height="92.4067" stroke="white" stroke-width="10.249"/>
<line y1="-5.12451" x2="128.32" y2="-5.12451" transform="matrix(-0.707107 -0.707107 -0.707107 0.707107 93.8154 101.003)" stroke="white" stroke-width="10.249"/>
<line x1="4.58834" y1="97.3774" x2="95.324" y2="6.64174" stroke="white" stroke-width="10.249"/>
<rect x="-5.12451" y="5.12451" width="92.4067" height="92.4067" transform="matrix(-1 0 0 1 297.718 0)" stroke="white" stroke-width="10.249"/>
<line x1="210.527" y1="97.3794" x2="301.262" y2="6.64369" stroke="white" stroke-width="10.249"/>
<line y1="-5.12451" x2="128.32" y2="-5.12451" transform="matrix(-0.707107 -0.707107 -0.707107 0.707107 299.755 101.001)" stroke="white" stroke-width="10.249"/>
<rect x="-5.12451" y="5.12451" width="92.4067" height="92.4067" transform="matrix(-1 0 0 1 503.029 0)" stroke="white" stroke-width="10.249"/>
<line x1="415.838" y1="97.3794" x2="506.574" y2="6.64369" stroke="white" stroke-width="10.249"/>
<line y1="-5.12451" x2="128.32" y2="-5.12451" transform="matrix(-0.707107 -0.707107 -0.707107 0.707107 505.066 101.001)" stroke="white" stroke-width="10.249"/>
<rect x="-5.12451" y="5.12451" width="92.4067" height="92.4067" transform="matrix(-1 0 0 1 708.567 0)" stroke="white" stroke-width="10.249"/>
<line x1="621.377" y1="97.3794" x2="712.113" y2="6.64369" stroke="white" stroke-width="10.249"/>
<line y1="-5.12451" x2="128.32" y2="-5.12451" transform="matrix(-0.707107 -0.707107 -0.707107 0.707107 710.604 101.001)" stroke="white" stroke-width="10.249"/>
<rect x="5.12451" y="210.436" width="92.4067" height="92.4067" stroke="white" stroke-width="10.249"/>
<line y1="-5.12451" x2="128.32" y2="-5.12451" transform="matrix(-0.707107 -0.707107 -0.707107 0.707107 93.8154 306.314)" stroke="white" stroke-width="10.249"/>
<line x1="4.58834" y1="302.69" x2="95.324" y2="211.954" stroke="white" stroke-width="10.249"/>
<rect x="-5.12451" y="5.12451" width="92.4067" height="92.4067" transform="matrix(-1 0 0 1 297.718 205.312)" stroke="white" stroke-width="10.249"/>
<line x1="210.527" y1="302.691" x2="301.262" y2="211.955" stroke="white" stroke-width="10.249"/>
<line y1="-5.12451" x2="128.32" y2="-5.12451" transform="matrix(-0.707107 -0.707107 -0.707107 0.707107 299.755 306.312)" stroke="white" stroke-width="10.249"/>
<rect x="-5.12451" y="5.12451" width="92.4067" height="92.4067" transform="matrix(-1 0 0 1 503.029 205.312)" stroke="white" stroke-width="10.249"/>
<line x1="415.838" y1="302.691" x2="506.574" y2="211.955" stroke="white" stroke-width="10.249"/>
<line y1="-5.12451" x2="128.32" y2="-5.12451" transform="matrix(-0.707107 -0.707107 -0.707107 0.707107 505.066 306.313)" stroke="white" stroke-width="10.249"/>
<rect x="-5.12451" y="5.12451" width="92.4067" height="92.4067" transform="matrix(-1 0 0 1 708.567 205.312)" stroke="white" stroke-width="10.249"/>
<line x1="621.377" y1="302.691" x2="712.113" y2="211.955" stroke="white" stroke-width="10.249"/>
<line y1="-5.12451" x2="128.32" y2="-5.12451" transform="matrix(-0.707107 -0.707107 -0.707107 0.707107 710.604 306.313)" stroke="white" stroke-width="10.249"/>
<rect x="107.78" y="107.781" width="92.4067" height="92.4067" stroke="white" stroke-width="10.249"/>
<line y1="-5.12451" x2="128.32" y2="-5.12451" transform="matrix(-0.707107 -0.707107 -0.707107 0.707107 196.471 203.659)" stroke="white" stroke-width="10.249"/>
<line x1="107.244" y1="200.034" x2="197.979" y2="109.298" stroke="white" stroke-width="10.249"/>
<rect x="107.78" y="312.827" width="92.4067" height="92.4067" stroke="white" stroke-width="10.249"/>
<line y1="-5.12451" x2="128.32" y2="-5.12451" transform="matrix(-0.707107 -0.707107 -0.707107 0.707107 196.471 408.705)" stroke="white" stroke-width="10.249"/>
<line x1="107.244" y1="405.08" x2="197.979" y2="314.344" stroke="white" stroke-width="10.249"/>
<rect x="313.091" y="107.781" width="92.4067" height="92.4067" stroke="white" stroke-width="10.249"/>
<line y1="-5.12451" x2="128.32" y2="-5.12451" transform="matrix(-0.707107 -0.707107 -0.707107 0.707107 401.783 203.659)" stroke="white" stroke-width="10.249"/>
<line x1="312.555" y1="200.034" x2="403.291" y2="109.298" stroke="white" stroke-width="10.249"/>
<rect x="313.091" y="312.827" width="92.4067" height="92.4067" stroke="white" stroke-width="10.249"/>
<line y1="-5.12451" x2="128.32" y2="-5.12451" transform="matrix(-0.707107 -0.707107 -0.707107 0.707107 401.783 408.705)" stroke="white" stroke-width="10.249"/>
<line x1="312.555" y1="405.08" x2="403.291" y2="314.344" stroke="white" stroke-width="10.249"/>
<rect x="293.952" y="653.452" width="7.80165" height="7.80165" stroke="white" stroke-width="0.865298"/>
<line y1="-0.432649" x2="10.8337" y2="-0.432649" transform="matrix(-0.707107 -0.707107 -0.707107 0.707107 301.44 661.548)" stroke="white" stroke-width="0.865298"/>
<line x1="293.907" y1="661.242" x2="301.568" y2="653.581" stroke="white" stroke-width="0.865298"/>
<rect x="518.629" y="107.781" width="92.4067" height="92.4067" stroke="white" stroke-width="10.249"/>
<line y1="-5.12451" x2="128.32" y2="-5.12451" transform="matrix(-0.707107 -0.707107 -0.707107 0.707107 607.32 203.659)" stroke="white" stroke-width="10.249"/>
<line x1="518.093" y1="200.034" x2="608.829" y2="109.298" stroke="white" stroke-width="10.249"/>
<rect x="518.629" y="312.827" width="92.4067" height="92.4067" stroke="white" stroke-width="10.249"/>
<line y1="-5.12451" x2="128.32" y2="-5.12451" transform="matrix(-0.707107 -0.707107 -0.707107 0.707107 607.32 408.705)" stroke="white" stroke-width="10.249"/>
<line x1="518.093" y1="405.08" x2="608.829" y2="314.344" stroke="white" stroke-width="10.249"/>
<rect x="53.8945" y="156.55" width="46.195" height="46.1951" stroke="white" stroke-width="5.13278"/>
<line y1="-2.56639" x2="64.1598" y2="-2.56639" transform="matrix(-0.707107 -0.707107 -0.707107 0.707107 98.2354 204.484)" stroke="white" stroke-width="5.13278"/>
<line x1="53.6199" y1="202.67" x2="98.9877" y2="157.302" stroke="white" stroke-width="5.13278"/>
<rect x="53.8945" y="361.597" width="46.195" height="46.1951" stroke="white" stroke-width="5.13278"/>
<line y1="-2.56639" x2="64.1598" y2="-2.56639" transform="matrix(-0.707107 -0.707107 -0.707107 0.707107 98.2354 409.531)" stroke="white" stroke-width="5.13278"/>
<line x1="53.6199" y1="407.717" x2="98.9877" y2="362.349" stroke="white" stroke-width="5.13278"/>
<rect x="-2.56639" y="2.56639" width="46.195" height="46.1951" transform="matrix(-1 0 0 1 251.507 153.983)" stroke="white" stroke-width="5.13278"/>
<line x1="207.917" y1="202.67" x2="253.285" y2="157.302" stroke="white" stroke-width="5.13278"/>
<line y1="-2.56639" x2="64.1598" y2="-2.56639" transform="matrix(-0.707107 -0.707107 -0.707107 0.707107 252.534 204.484)" stroke="white" stroke-width="5.13278"/>
<rect x="-2.56639" y="2.56639" width="46.195" height="46.1951" transform="matrix(-1 0 0 1 251.507 359.03)" stroke="white" stroke-width="5.13278"/>
<line x1="207.917" y1="407.717" x2="253.285" y2="362.349" stroke="white" stroke-width="5.13278"/>
<line y1="-2.56639" x2="64.1598" y2="-2.56639" transform="matrix(-0.707107 -0.707107 -0.707107 0.707107 252.534 409.531)" stroke="white" stroke-width="5.13278"/>
<rect x="-2.56639" y="2.56639" width="46.195" height="46.1951" transform="matrix(-1 0 0 1 456.818 153.983)" stroke="white" stroke-width="5.13278"/>
<line x1="413.228" y1="202.67" x2="458.596" y2="157.302" stroke="white" stroke-width="5.13278"/>
<line y1="-2.56639" x2="64.1598" y2="-2.56639" transform="matrix(-0.707107 -0.707107 -0.707107 0.707107 457.845 204.484)" stroke="white" stroke-width="5.13278"/>
<rect x="-2.56639" y="2.56639" width="46.195" height="46.1951" transform="matrix(-1 0 0 1 456.818 359.03)" stroke="white" stroke-width="5.13278"/>
<line x1="413.228" y1="407.717" x2="458.596" y2="362.349" stroke="white" stroke-width="5.13278"/>
<line y1="-2.56639" x2="64.1598" y2="-2.56639" transform="matrix(-0.707107 -0.707107 -0.707107 0.707107 457.845 409.531)" stroke="white" stroke-width="5.13278"/>
<rect x="-2.56639" y="2.56639" width="46.195" height="46.1951" transform="matrix(-1 0 0 1 662.355 153.983)" stroke="white" stroke-width="5.13278"/>
<line x1="618.765" y1="202.67" x2="664.133" y2="157.302" stroke="white" stroke-width="5.13278"/>
<line y1="-2.56639" x2="64.1598" y2="-2.56639" transform="matrix(-0.707107 -0.707107 -0.707107 0.707107 663.382 204.484)" stroke="white" stroke-width="5.13278"/>
<rect x="-2.56639" y="2.56639" width="46.195" height="46.1951" transform="matrix(-1 0 0 1 662.355 359.03)" stroke="white" stroke-width="5.13278"/>
<line x1="618.765" y1="407.717" x2="664.133" y2="362.349" stroke="white" stroke-width="5.13278"/>
<line y1="-2.56639" x2="64.1598" y2="-2.56639" transform="matrix(-0.707107 -0.707107 -0.707107 0.707107 663.382 409.531)" stroke="white" stroke-width="5.13278"/>
<rect x="151.418" y="254.073" width="46.195" height="46.1951" transform="rotate(180 151.418 254.073)" stroke="white" stroke-width="5.13278"/>
<line y1="-2.56639" x2="64.1598" y2="-2.56639" transform="matrix(0.707107 0.707107 0.707107 -0.707107 107.076 206.139)" stroke="white" stroke-width="5.13278"/>
<line x1="151.694" y1="207.953" x2="106.326" y2="253.321" stroke="white" stroke-width="5.13278"/>
<rect x="356.728" y="254.073" width="46.195" height="46.1951" transform="rotate(180 356.728 254.073)" stroke="white" stroke-width="5.13278"/>
<line y1="-2.56639" x2="64.1598" y2="-2.56639" transform="matrix(0.707107 0.707107 0.707107 -0.707107 312.386 206.139)" stroke="white" stroke-width="5.13278"/>
<line x1="357.003" y1="207.953" x2="311.635" y2="253.321" stroke="white" stroke-width="5.13278"/>
<rect x="562.266" y="254.073" width="46.195" height="46.1951" transform="rotate(180 562.266 254.073)" stroke="white" stroke-width="5.13278"/>
<line y1="-2.56639" x2="64.1598" y2="-2.56639" transform="matrix(0.707107 0.707107 0.707107 -0.707107 517.924 206.139)" stroke="white" stroke-width="5.13278"/>
<line x1="562.54" y1="207.953" x2="517.172" y2="253.321" stroke="white" stroke-width="5.13278"/>
<rect x="-2.56639" y="2.56639" width="46.195" height="46.1951" transform="matrix(-1 0 0 1 148.852 51.3281)" stroke="white" stroke-width="5.13278"/>
<line x1="105.261" y1="100.014" x2="150.629" y2="54.6466" stroke="white" stroke-width="5.13278"/>
<line y1="-2.56639" x2="64.1598" y2="-2.56639" transform="matrix(-0.707107 -0.707107 -0.707107 0.707107 149.879 101.829)" stroke="white" stroke-width="5.13278"/>
<rect x="-2.56639" y="2.56639" width="46.195" height="46.1951" transform="matrix(-1 0 0 1 354.161 51.3281)" stroke="white" stroke-width="5.13278"/>
<line x1="310.571" y1="100.014" x2="355.939" y2="54.6466" stroke="white" stroke-width="5.13278"/>
<line y1="-2.56639" x2="64.1598" y2="-2.56639" transform="matrix(-0.707107 -0.707107 -0.707107 0.707107 355.188 101.829)" stroke="white" stroke-width="5.13278"/>
<rect x="-2.56639" y="2.56639" width="46.195" height="46.1951" transform="matrix(-1 0 0 1 559.699 51.3281)" stroke="white" stroke-width="5.13278"/>
<line x1="516.109" y1="100.014" x2="561.477" y2="54.6466" stroke="white" stroke-width="5.13278"/>
<line y1="-2.56639" x2="64.1598" y2="-2.56639" transform="matrix(-0.707107 -0.707107 -0.707107 0.707107 560.726 101.829)" stroke="white" stroke-width="5.13278"/>
<rect x="2.56639" y="105.223" width="46.195" height="46.1951" stroke="white" stroke-width="5.13278"/>
<line y1="-2.56639" x2="64.1598" y2="-2.56639" transform="matrix(-0.707107 -0.707107 -0.707107 0.707107 46.9082 153.157)" stroke="white" stroke-width="5.13278"/>
<line x1="2.29173" y1="151.343" x2="47.6596" y2="105.975" stroke="white" stroke-width="5.13278"/>
<rect x="2.56639" y="310.269" width="46.195" height="46.1951" stroke="white" stroke-width="5.13278"/>
<line y1="-2.56639" x2="64.1598" y2="-2.56639" transform="matrix(-0.707107 -0.707107 -0.707107 0.707107 46.9082 358.203)" stroke="white" stroke-width="5.13278"/>
<line x1="2.29173" y1="356.388" x2="47.6596" y2="311.021" stroke="white" stroke-width="5.13278"/>
<rect x="-2.56639" y="2.56639" width="46.195" height="46.1951" transform="matrix(-1 0 0 1 302.834 102.656)" stroke="white" stroke-width="5.13278"/>
<line x1="259.244" y1="151.343" x2="304.612" y2="105.975" stroke="white" stroke-width="5.13278"/>
<line y1="-2.56639" x2="64.1598" y2="-2.56639" transform="matrix(-0.707107 -0.707107 -0.707107 0.707107 303.86 153.157)" stroke="white" stroke-width="5.13278"/>
<rect x="-2.56639" y="2.56639" width="46.195" height="46.1951" transform="matrix(-1 0 0 1 302.834 307.702)" stroke="white" stroke-width="5.13278"/>
<line x1="259.244" y1="356.388" x2="304.612" y2="311.021" stroke="white" stroke-width="5.13278"/>
<line y1="-2.56639" x2="64.1598" y2="-2.56639" transform="matrix(-0.707107 -0.707107 -0.707107 0.707107 303.86 358.203)" stroke="white" stroke-width="5.13278"/>
<rect x="-2.56639" y="2.56639" width="46.195" height="46.1951" transform="matrix(-1 0 0 1 508.146 102.656)" stroke="white" stroke-width="5.13278"/>
<line x1="464.556" y1="151.343" x2="509.924" y2="105.975" stroke="white" stroke-width="5.13278"/>
<line y1="-2.56639" x2="64.1598" y2="-2.56639" transform="matrix(-0.707107 -0.707107 -0.707107 0.707107 509.172 153.157)" stroke="white" stroke-width="5.13278"/>
<rect x="-2.56639" y="2.56639" width="46.195" height="46.1951" transform="matrix(-1 0 0 1 508.146 307.702)" stroke="white" stroke-width="5.13278"/>
<line x1="464.556" y1="356.388" x2="509.924" y2="311.021" stroke="white" stroke-width="5.13278"/>
<line y1="-2.56639" x2="64.1598" y2="-2.56639" transform="matrix(-0.707107 -0.707107 -0.707107 0.707107 509.172 358.203)" stroke="white" stroke-width="5.13278"/>
<rect x="-2.56639" y="2.56639" width="46.195" height="46.1951" transform="matrix(-1 0 0 1 713.684 102.656)" stroke="white" stroke-width="5.13278"/>
<line x1="670.094" y1="151.343" x2="715.462" y2="105.975" stroke="white" stroke-width="5.13278"/>
<line y1="-2.56639" x2="64.1598" y2="-2.56639" transform="matrix(-0.707107 -0.707107 -0.707107 0.707107 714.71 153.157)" stroke="white" stroke-width="5.13278"/>
<rect x="-2.56639" y="2.56639" width="46.195" height="46.1951" transform="matrix(-1 0 0 1 713.684 307.702)" stroke="white" stroke-width="5.13278"/>
<line x1="670.094" y1="356.388" x2="715.462" y2="311.021" stroke="white" stroke-width="5.13278"/>
<line y1="-2.56639" x2="64.1598" y2="-2.56639" transform="matrix(-0.707107 -0.707107 -0.707107 0.707107 714.71 358.203)" stroke="white" stroke-width="5.13278"/>
<rect x="202.745" y="305.401" width="46.195" height="46.1951" transform="rotate(180 202.745 305.401)" stroke="white" stroke-width="5.13278"/>
<line y1="-2.56639" x2="64.1598" y2="-2.56639" transform="matrix(0.707107 0.707107 0.707107 -0.707107 158.403 257.467)" stroke="white" stroke-width="5.13278"/>
<line x1="203.02" y1="259.282" x2="157.652" y2="304.649" stroke="white" stroke-width="5.13278"/>
<rect x="408.056" y="305.401" width="46.195" height="46.1951" transform="rotate(180 408.056 305.401)" stroke="white" stroke-width="5.13278"/>
<line y1="-2.56639" x2="64.1598" y2="-2.56639" transform="matrix(0.707107 0.707107 0.707107 -0.707107 363.714 257.467)" stroke="white" stroke-width="5.13278"/>
<line x1="408.33" y1="259.282" x2="362.963" y2="304.649" stroke="white" stroke-width="5.13278"/>
<rect x="613.594" y="305.401" width="46.195" height="46.1951" transform="rotate(180 613.594 305.401)" stroke="white" stroke-width="5.13278"/>
<line y1="-2.56639" x2="64.1598" y2="-2.56639" transform="matrix(0.707107 0.707107 0.707107 -0.707107 569.252 257.467)" stroke="white" stroke-width="5.13278"/>
<line x1="613.868" y1="259.282" x2="568.501" y2="304.649" stroke="white" stroke-width="5.13278"/>
<rect x="-2.56639" y="2.56639" width="46.195" height="46.1951" transform="matrix(-1 0 0 1 200.179 0)" stroke="white" stroke-width="5.13278"/>
<line x1="156.589" y1="48.6863" x2="201.956" y2="3.31843" stroke="white" stroke-width="5.13278"/>
<line y1="-2.56639" x2="64.1598" y2="-2.56639" transform="matrix(-0.707107 -0.707107 -0.707107 0.707107 201.205 50.501)" stroke="white" stroke-width="5.13278"/>
<rect x="-2.56639" y="2.56639" width="46.195" height="46.1951" transform="matrix(-1 0 0 1 405.489 0)" stroke="white" stroke-width="5.13278"/>
<line x1="361.899" y1="48.6863" x2="407.267" y2="3.31843" stroke="white" stroke-width="5.13278"/>
<line y1="-2.56639" x2="64.1598" y2="-2.56639" transform="matrix(-0.707107 -0.707107 -0.707107 0.707107 406.516 50.501)" stroke="white" stroke-width="5.13278"/>
<rect x="-2.56639" y="2.56639" width="46.195" height="46.1951" transform="matrix(-1 0 0 1 611.027 0)" stroke="white" stroke-width="5.13278"/>
<line x1="567.437" y1="48.6863" x2="612.805" y2="3.31843" stroke="white" stroke-width="5.13278"/>
<line y1="-2.56639" x2="64.1598" y2="-2.56639" transform="matrix(-0.707107 -0.707107 -0.707107 0.707107 612.054 50.501)" stroke="white" stroke-width="5.13278"/>
<path d="M25.7615 169.455C25.2509 167.548 25.4807 163.924 30.3331 163.904C30.8436 165.811 30.6138 169.436 25.7615 169.455Z" fill="white"/>
<path d="M25.6634 194.869C42.3198 201.606 51.1989 161.888 25.6634 171.055C0.127887 161.888 9.00692 201.606 25.6634 194.869Z" fill="white"/>
<path d="M25.7615 374.502C25.2509 372.595 25.4807 368.971 30.3331 368.951C30.8436 370.858 30.6138 374.483 25.7615 374.502Z" fill="white"/>
<path d="M25.6634 399.915C42.3198 406.653 51.1989 366.935 25.6634 376.102C0.127887 366.935 9.00692 406.653 25.6634 399.915Z" fill="white"/>
<path d="M282.205 169.455C282.716 167.548 282.486 163.924 277.634 163.904C277.123 165.811 277.353 169.436 282.205 169.455Z" fill="white"/>
<path d="M282.303 194.869C265.647 201.606 256.768 161.888 282.303 171.055C307.839 161.888 298.96 201.606 282.303 194.869Z" fill="white"/>
<path d="M282.205 374.502C282.716 372.595 282.486 368.971 277.634 368.951C277.123 370.858 277.353 374.483 282.205 374.502Z" fill="white"/>
<path d="M282.303 399.915C265.647 406.653 256.768 366.935 282.303 376.102C307.839 366.935 298.96 406.653 282.303 399.915Z" fill="white"/>
<path d="M487.516 169.455C488.026 167.548 487.797 163.924 482.944 163.904C482.434 165.811 482.664 169.436 487.516 169.455Z" fill="white"/>
<path d="M487.614 194.869C470.958 201.606 462.078 161.888 487.614 171.055C513.149 161.888 504.27 201.606 487.614 194.869Z" fill="white"/>
<path d="M487.516 374.502C488.026 372.595 487.797 368.971 482.944 368.951C482.434 370.858 482.664 374.483 487.516 374.502Z" fill="white"/>
<path d="M487.614 399.915C470.958 406.653 462.078 366.935 487.614 376.102C513.149 366.935 504.27 406.653 487.614 399.915Z" fill="white"/>
<path d="M693.054 169.455C693.565 167.548 693.335 163.924 688.482 163.904C687.972 165.811 688.202 169.436 693.054 169.455Z" fill="white"/>
<path d="M693.152 194.869C676.496 201.606 667.617 161.888 693.152 171.055C718.688 161.888 709.809 201.606 693.152 194.869Z" fill="white"/>
<path d="M693.054 374.502C693.565 372.595 693.335 368.971 688.482 368.951C687.972 370.858 688.202 374.483 693.054 374.502Z" fill="white"/>
<path d="M693.152 399.915C676.496 406.653 667.617 366.935 693.152 376.102C718.688 366.935 709.809 406.653 693.152 399.915Z" fill="white"/>
<path d="M179.55 241.167C180.061 243.074 179.831 246.698 174.978 246.718C174.468 244.811 174.698 241.186 179.55 241.167Z" fill="white"/>
<path d="M179.648 215.756C162.992 209.019 154.113 248.737 179.648 239.57C205.184 248.737 196.305 209.019 179.648 215.756Z" fill="white"/>
<path d="M384.86 241.167C385.37 243.074 385.14 246.698 380.288 246.718C379.777 244.811 380.007 241.186 384.86 241.167Z" fill="white"/>
<path d="M384.959 215.756C368.302 209.019 359.423 248.737 384.959 239.57C410.494 248.737 401.615 209.019 384.959 215.756Z" fill="white"/>
<path d="M590.399 241.167C590.909 243.074 590.679 246.698 585.827 246.718C585.317 244.811 585.546 241.186 590.399 241.167Z" fill="white"/>
<path d="M590.497 215.756C573.84 209.019 564.961 248.737 590.497 239.57C616.032 248.737 607.153 209.019 590.497 215.756Z" fill="white"/>
<path d="M179.55 66.7999C180.061 64.893 179.831 61.2686 174.978 61.2491C174.468 63.156 174.698 66.7804 179.55 66.7999Z" fill="white"/>
<path d="M179.648 92.2133C162.992 98.9507 154.113 59.2327 179.648 68.3997C205.184 59.2327 196.305 98.9507 179.648 92.2133Z" fill="white"/>
<path d="M384.86 66.7999C385.37 64.893 385.14 61.2686 380.288 61.2491C379.777 63.156 380.007 66.7804 384.86 66.7999Z" fill="white"/>
<path d="M384.959 92.2133C368.302 98.9507 359.423 59.2327 384.959 68.3997C410.494 59.2327 401.615 98.9507 384.959 92.2133Z" fill="white"/>
<path d="M590.399 66.7999C590.909 64.893 590.679 61.2686 585.827 61.2491C585.317 63.156 585.546 66.7804 590.399 66.7999Z" fill="white"/>
<path d="M590.497 92.2133C573.84 98.9507 564.961 59.2327 590.497 68.3997C616.032 59.2327 607.153 98.9507 590.497 92.2133Z" fill="white"/>
<path d="M67.0644 133.567C69.388 138.712 69.2971 142.962 68.9612 144.444H81.9423C84.3845 140.01 78.8304 133.192 75.7481 130.337C76.1038 130.416 76.9633 130.574 77.556 130.574C78.297 130.574 79.5121 129.862 80.6087 129.922C81.4859 129.969 82.7722 131.107 83.3057 131.67C85.8901 131.86 86.9313 130.682 87.1289 130.07L86.9511 127.403L81.9423 122.957C81.397 121.582 79.7986 119.776 78.8897 119.608L74.5626 119.045C66.2382 119.045 66.2049 129.586 67.0644 133.567Z" fill="white"/>
<path d="M72.0517 117.351L71.8714 119.413L79.2245 120.056L79.4048 117.995L83.3651 116.542L76.1171 112.739L68.2551 115.22L72.0517 117.351Z" fill="white"/>
<path d="M67.0644 338.614C69.388 343.759 69.2971 348.009 68.9612 349.491H81.9423C84.3845 345.057 78.8304 338.239 75.7481 335.384C76.1038 335.463 76.9633 335.621 77.556 335.621C78.297 335.621 79.5121 334.909 80.6087 334.969C81.4859 335.016 82.7722 336.154 83.3057 336.717C85.8901 336.907 86.9313 335.729 87.1289 335.117L86.9511 332.449L81.9423 328.004C81.397 326.629 79.7986 324.823 78.8897 324.655L74.5626 324.092C66.2382 324.092 66.2049 334.633 67.0644 338.614Z" fill="white"/>
<path d="M72.0517 322.398L71.8714 324.46L79.2245 325.103L79.4048 323.042L83.3651 321.589L76.1171 317.786L68.2551 320.267L72.0517 322.398Z" fill="white"/>
<path d="M240.904 133.567C238.581 138.712 238.672 142.962 239.008 144.444H226.026C223.584 140.01 229.138 133.192 232.221 130.337C231.865 130.416 231.005 130.574 230.413 130.574C229.672 130.574 228.457 129.862 227.36 129.922C226.483 129.969 225.197 131.107 224.663 131.67C222.079 131.86 221.037 130.682 220.84 130.07L221.018 127.403L226.026 122.957C226.572 121.582 228.17 119.776 229.079 119.608L233.406 119.045C241.731 119.045 241.764 129.586 240.904 133.567Z" fill="white"/>
<path d="M235.918 117.351L236.098 119.413L228.745 120.056L228.565 117.995L224.605 116.542L231.853 112.739L239.715 115.22L235.918 117.351Z" fill="white"/>
<path d="M240.904 338.614C238.581 343.759 238.672 348.009 239.008 349.491H226.026C223.584 345.057 229.138 338.239 232.221 335.384C231.865 335.463 231.005 335.621 230.413 335.621C229.672 335.621 228.457 334.909 227.36 334.969C226.483 335.016 225.197 336.154 224.663 336.717C222.079 336.907 221.037 335.729 220.84 335.117L221.018 332.449L226.026 328.004C226.572 326.629 228.17 324.823 229.079 324.655L233.406 324.092C241.731 324.092 241.764 334.633 240.904 338.614Z" fill="white"/>
<path d="M235.918 322.398L236.098 324.46L228.745 325.103L228.565 323.042L224.605 321.589L231.853 317.786L239.715 320.267L235.918 322.398Z" fill="white"/>
<path d="M446.216 133.567C443.892 138.712 443.983 142.962 444.319 144.444H431.338C428.896 140.01 434.45 133.192 437.532 130.337C437.176 130.416 436.317 130.574 435.724 130.574C434.983 130.574 433.768 129.862 432.672 129.922C431.794 129.969 430.508 131.107 429.975 131.67C427.39 131.86 426.349 130.682 426.151 130.07L426.329 127.403L431.338 122.957C431.883 121.582 433.482 119.776 434.391 119.608L438.718 119.045C447.042 119.045 447.075 129.586 446.216 133.567Z" fill="white"/>
<path d="M441.23 117.351L441.41 119.413L434.057 120.056L433.876 117.995L429.916 116.542L437.164 112.739L445.026 115.22L441.23 117.351Z" fill="white"/>
<path d="M446.216 338.614C443.892 343.759 443.983 348.009 444.319 349.491H431.338C428.896 345.057 434.45 338.239 437.532 335.384C437.176 335.463 436.317 335.621 435.724 335.621C434.983 335.621 433.768 334.909 432.672 334.969C431.794 335.016 430.508 336.154 429.975 336.717C427.39 336.907 426.349 335.729 426.151 335.117L426.329 332.449L431.338 328.004C431.883 326.629 433.482 324.823 434.391 324.655L438.718 324.092C447.042 324.092 447.075 334.633 446.216 338.614Z" fill="white"/>
<path d="M441.23 322.398L441.41 324.46L434.057 325.103L433.876 323.042L429.916 321.589L437.164 317.786L445.026 320.267L441.23 322.398Z" fill="white"/>
<path d="M651.752 133.567C649.428 138.712 649.519 142.962 649.855 144.444H636.874C634.432 140.01 639.986 133.192 643.068 130.337C642.713 130.416 641.853 130.574 641.26 130.574C640.519 130.574 639.304 129.862 638.208 129.922C637.33 129.969 636.044 131.107 635.511 131.67C632.926 131.86 631.885 130.682 631.688 130.07L631.865 127.403L636.874 122.957C637.419 121.582 639.018 119.776 639.927 119.608L644.254 119.045C652.578 119.045 652.612 129.586 651.752 133.567Z" fill="white"/>
<path d="M646.766 117.351L646.946 119.413L639.593 120.056L639.413 117.995L635.452 116.542L642.7 112.739L650.562 115.22L646.766 117.351Z" fill="white"/>
<path d="M651.752 338.614C649.428 343.759 649.519 348.009 649.855 349.491H636.874C634.432 345.057 639.986 338.239 643.068 335.384C642.713 335.463 641.853 335.621 641.26 335.621C640.519 335.621 639.304 334.909 638.208 334.969C637.33 335.016 636.044 336.154 635.511 336.717C632.926 336.907 631.885 335.729 631.688 335.117L631.865 332.449L636.874 328.004C637.419 326.629 639.018 324.823 639.927 324.655L644.254 324.092C652.578 324.092 652.612 334.633 651.752 338.614Z" fill="white"/>
<path d="M646.766 322.398L646.946 324.46L639.593 325.103L639.413 323.042L635.452 321.589L642.7 317.786L650.562 320.267L646.766 322.398Z" fill="white"/>
<path d="M138.246 277.052C135.923 271.907 136.013 267.657 136.349 266.175H123.368C120.926 270.609 126.48 277.427 129.562 280.282C129.207 280.203 128.347 280.045 127.755 280.045C127.014 280.045 125.798 280.757 124.702 280.697C123.825 280.65 122.538 279.512 122.005 278.949C119.42 278.759 118.379 279.937 118.182 280.549L118.359 283.217L123.368 287.662C123.914 289.037 125.512 290.843 126.421 291.011L130.748 291.574C139.072 291.574 139.106 281.033 138.246 277.052Z" fill="white"/>
<path d="M133.259 293.268L133.439 291.206L126.086 290.563L125.906 292.624L121.945 294.077L129.193 297.88L137.055 295.399L133.259 293.268Z" fill="white"/>
<path d="M343.558 277.052C341.234 271.907 341.325 267.657 341.661 266.175H328.68C326.238 270.609 331.792 277.427 334.874 280.282C334.518 280.203 333.659 280.045 333.066 280.045C332.325 280.045 331.11 280.757 330.013 280.697C329.136 280.65 327.85 279.512 327.316 278.949C324.732 278.759 323.691 279.937 323.493 280.549L323.671 283.217L328.68 287.662C329.225 289.037 330.823 290.843 331.732 291.011L336.059 291.574C344.384 291.574 344.417 281.033 343.558 277.052Z" fill="white"/>
<path d="M338.57 293.268L338.751 291.206L331.398 290.563L331.217 292.624L327.257 294.077L334.505 297.88L342.367 295.399L338.57 293.268Z" fill="white"/>
<path d="M549.097 277.052C546.773 271.907 546.864 267.657 547.2 266.175H534.219C531.777 270.609 537.331 277.427 540.413 280.282C540.057 280.203 539.198 280.045 538.605 280.045C537.864 280.045 536.649 280.757 535.552 280.697C534.675 280.65 533.389 279.512 532.855 278.949C530.271 278.759 529.23 279.937 529.032 280.549L529.21 283.217L534.219 287.662C534.764 289.037 536.363 290.843 537.271 291.011L541.599 291.574C549.923 291.574 549.956 281.033 549.097 277.052Z" fill="white"/>
<path d="M544.11 293.268L544.291 291.206L536.938 290.563L536.757 292.624L532.797 294.077L540.045 297.88L547.907 295.399L544.11 293.268Z" fill="white"/>
<path d="M138.246 30.9147C135.923 36.0597 136.013 40.3097 136.349 41.7915H123.368C120.926 37.3578 126.48 30.5393 129.562 27.6843C129.207 27.7633 128.347 27.9214 127.755 27.9214C127.014 27.9214 125.798 27.2101 124.702 27.2694C123.825 27.3168 122.538 28.4549 122.005 29.018C119.42 29.2076 118.379 28.0301 118.182 27.4176L118.359 24.7502L123.368 20.3047C123.914 18.9295 125.512 17.1236 126.421 16.9557L130.748 16.3926C139.072 16.3926 139.106 26.9335 138.246 30.9147Z" fill="white"/>
<path d="M133.259 14.699L133.439 16.7604L126.086 17.4037L125.906 15.3423L121.945 13.89L129.193 10.0866L137.055 12.5681L133.259 14.699Z" fill="white"/>
<path d="M343.558 30.9147C341.234 36.0597 341.325 40.3097 341.661 41.7915H328.68C326.238 37.3578 331.792 30.5393 334.874 27.6843C334.518 27.7633 333.659 27.9214 333.066 27.9214C332.325 27.9214 331.11 27.2101 330.013 27.2694C329.136 27.3168 327.85 28.4549 327.316 29.018C324.732 29.2076 323.691 28.0301 323.493 27.4176L323.671 24.7502L328.68 20.3047C329.225 18.9295 330.823 17.1236 331.732 16.9557L336.059 16.3926C344.384 16.3926 344.417 26.9335 343.558 30.9147Z" fill="white"/>
<path d="M338.57 14.699L338.751 16.7604L331.398 17.4037L331.217 15.3423L327.257 13.89L334.505 10.0866L342.367 12.5681L338.57 14.699Z" fill="white"/>
<path d="M549.097 30.9147C546.773 36.0597 546.864 40.3097 547.2 41.7915H534.219C531.777 37.3578 537.331 30.5393 540.413 27.6843C540.057 27.7633 539.198 27.9214 538.605 27.9214C537.864 27.9214 536.649 27.2101 535.552 27.2694C534.675 27.3168 533.389 28.4549 532.855 29.018C530.271 29.2076 529.23 28.0301 529.032 27.4176L529.21 24.7502L534.219 20.3047C534.764 18.9295 536.363 17.1236 537.271 16.9557L541.599 16.3926C549.923 16.3926 549.956 26.9335 549.097 30.9147Z" fill="white"/>
<path d="M544.11 14.699L544.291 16.7604L536.938 17.4037L536.757 15.3423L532.797 13.89L540.045 10.0866L547.907 12.5681L544.11 14.699Z" fill="white"/>
<path d="M113.438 552V500.202H149.992L149.918 509.97H122.539L125.277 507.232L125.351 552H113.438ZM175.823 552.592C172.469 552.592 169.533 551.852 167.018 550.372C164.502 548.892 162.528 546.648 161.098 543.638C159.717 540.58 159.026 536.732 159.026 532.095C159.026 527.408 159.692 523.561 161.024 520.551C162.356 517.542 164.28 515.298 166.796 513.818C169.311 512.338 172.321 511.598 175.823 511.598C179.572 511.598 182.927 512.461 185.887 514.188C188.896 515.865 191.264 518.233 192.99 521.291C194.766 524.35 195.654 527.951 195.654 532.095C195.654 536.288 194.766 539.914 192.99 542.972C191.264 546.031 188.896 548.399 185.887 550.076C182.927 551.753 179.572 552.592 175.823 552.592ZM152.292 566.355V512.19H163.318V520.329L163.096 532.169L163.836 543.934V566.355H152.292ZM173.825 543.12C175.749 543.12 177.451 542.676 178.931 541.788C180.46 540.901 181.669 539.643 182.557 538.015C183.494 536.337 183.963 534.364 183.963 532.095C183.963 529.776 183.494 527.803 182.557 526.175C181.669 524.547 180.46 523.289 178.931 522.401C177.451 521.513 175.749 521.069 173.825 521.069C171.901 521.069 170.175 521.513 168.646 522.401C167.116 523.289 165.908 524.547 165.02 526.175C164.132 527.803 163.688 529.776 163.688 532.095C163.688 534.364 164.132 536.337 165.02 538.015C165.908 539.643 167.116 540.901 168.646 541.788C170.175 542.676 171.901 543.12 173.825 543.12ZM203.745 552V512.19H215.214V535.869L234.601 512.19H245.183V552H233.713V528.321L214.4 552H203.745ZM256.279 552V512.19H276.628C281.611 512.19 285.508 513.102 288.32 514.928C291.132 516.704 292.538 519.22 292.538 522.475C292.538 525.731 291.206 528.296 288.542 530.171C285.927 531.996 282.45 532.909 278.108 532.909L279.292 530.245C284.127 530.245 287.728 531.133 290.096 532.909C292.513 534.685 293.722 537.275 293.722 540.679C293.722 544.181 292.39 546.944 289.726 548.966C287.062 550.989 282.992 552 277.516 552H256.279ZM266.861 544.156H276.554C278.676 544.156 280.254 543.811 281.29 543.12C282.376 542.38 282.918 541.27 282.918 539.791C282.918 538.261 282.425 537.151 281.438 536.461C280.452 535.721 278.898 535.351 276.776 535.351H266.861V544.156ZM266.861 528.543H275.593C277.615 528.543 279.12 528.173 280.106 527.433C281.142 526.693 281.66 525.633 281.66 524.251C281.66 522.821 281.142 521.76 280.106 521.069C279.12 520.379 277.615 520.033 275.593 520.033H266.861V528.543ZM326.137 552V544.23L325.397 542.528V528.617C325.397 526.151 324.633 524.227 323.104 522.845C321.624 521.464 319.33 520.773 316.222 520.773C314.101 520.773 312.004 521.119 309.932 521.809C307.91 522.451 306.183 523.339 304.752 524.473L300.609 516.408C302.779 514.878 305.394 513.694 308.452 512.856C311.511 512.017 314.619 511.598 317.776 511.598C323.843 511.598 328.555 513.028 331.909 515.89C335.264 518.751 336.941 523.215 336.941 529.283V552H326.137ZM314.002 552.592C310.894 552.592 308.23 552.074 306.01 551.038C303.79 549.953 302.088 548.497 300.905 546.672C299.721 544.847 299.129 542.8 299.129 540.531C299.129 538.163 299.696 536.091 300.831 534.315C302.014 532.539 303.864 531.158 306.38 530.171C308.896 529.135 312.177 528.617 316.222 528.617H326.803V535.351H317.48C314.767 535.351 312.892 535.795 311.856 536.683C310.869 537.571 310.376 538.681 310.376 540.013C310.376 541.492 310.943 542.676 312.078 543.564C313.262 544.403 314.865 544.822 316.888 544.822C318.812 544.822 320.538 544.378 322.068 543.49C323.597 542.553 324.707 541.197 325.397 539.421L327.173 544.748C326.335 547.314 324.805 549.262 322.586 550.594C320.366 551.926 317.504 552.592 314.002 552.592ZM365.912 552.592C361.62 552.592 357.797 551.729 354.442 550.002C351.088 548.226 348.448 545.784 346.525 542.676C344.65 539.569 343.713 536.041 343.713 532.095C343.713 528.099 344.65 524.572 346.525 521.513C348.448 518.406 351.088 515.988 354.442 514.262C357.797 512.486 361.62 511.598 365.912 511.598C370.105 511.598 373.755 512.486 376.863 514.262C379.971 515.988 382.265 518.48 383.745 521.735L374.791 526.545C373.755 524.671 372.448 523.289 370.869 522.401C369.34 521.513 367.663 521.069 365.838 521.069C363.864 521.069 362.089 521.513 360.51 522.401C358.931 523.289 357.673 524.547 356.736 526.175C355.848 527.803 355.404 529.776 355.404 532.095C355.404 534.413 355.848 536.387 356.736 538.015C357.673 539.643 358.931 540.901 360.51 541.788C362.089 542.676 363.864 543.12 365.838 543.12C367.663 543.12 369.34 542.701 370.869 541.862C372.448 540.975 373.755 539.569 374.791 537.645L383.745 542.528C382.265 545.735 379.971 548.226 376.863 550.002C373.755 551.729 370.105 552.592 365.912 552.592ZM399.197 552V518.998L401.787 521.661H385.729V512.19H424.134V521.661H408.076L410.666 518.998V552H399.197ZM430.287 552V512.19H441.756V535.869L461.144 512.19H471.725V552H460.256V528.321L440.942 552H430.287ZM511.014 552L497.695 533.131L507.092 527.581L524.63 552H511.014ZM482.822 552V512.19H494.365V552H482.822ZM490.961 536.905V527.655H504.873V536.905H490.961ZM508.202 533.427L497.399 532.243L511.384 512.19H523.668L508.202 533.427ZM533.46 566.947C531.388 566.947 529.34 566.627 527.318 565.985C525.295 565.344 523.643 564.456 522.36 563.321L526.578 555.108C527.466 555.897 528.477 556.514 529.612 556.958C530.796 557.402 531.955 557.624 533.09 557.624C534.717 557.624 536 557.229 536.937 556.44C537.924 555.7 538.812 554.442 539.601 552.666L541.673 547.782L542.561 546.524L556.842 512.19H567.942L549.961 554.442C548.678 557.648 547.198 560.164 545.521 561.99C543.893 563.815 542.068 565.097 540.045 565.837C538.072 566.577 535.877 566.947 533.46 566.947ZM540.267 553.554L522.508 512.19H534.422L548.185 545.488L540.267 553.554ZM591.37 552.592C587.078 552.592 583.255 551.729 579.901 550.002C576.546 548.226 573.907 545.784 571.983 542.676C570.108 539.569 569.171 536.041 569.171 532.095C569.171 528.099 570.108 524.572 571.983 521.513C573.907 518.406 576.546 515.988 579.901 514.262C583.255 512.486 587.078 511.598 591.37 511.598C595.563 511.598 599.214 512.486 602.321 514.262C605.429 515.988 607.723 518.48 609.203 521.735L600.25 526.545C599.214 524.671 597.906 523.289 596.328 522.401C594.798 521.513 593.121 521.069 591.296 521.069C589.323 521.069 587.547 521.513 585.968 522.401C584.39 523.289 583.132 524.547 582.194 526.175C581.306 527.803 580.862 529.776 580.862 532.095C580.862 534.413 581.306 536.387 582.194 538.015C583.132 539.643 584.39 540.901 585.968 541.788C587.547 542.676 589.323 543.12 591.296 543.12C593.121 543.12 594.798 542.701 596.328 541.862C597.906 540.975 599.214 539.569 600.25 537.645L609.203 542.528C607.723 545.735 605.429 548.226 602.321 550.002C599.214 551.729 595.563 552.592 591.37 552.592Z" fill="white"/>
<path d="M165.013 613.956L174.786 592.374H177.839L187.643 613.956H184.406L175.68 594.1H176.914L168.188 613.956H165.013ZM169.175 608.56L170.007 606.094H182.155L183.049 608.56H169.175ZM190.875 613.956V597.615H198.459C200.371 597.615 201.871 597.985 202.961 598.725C204.071 599.445 204.626 600.472 204.626 601.808C204.626 603.144 204.102 604.182 203.053 604.922C202.026 605.642 200.659 606.001 198.953 606.001L199.415 605.2C201.368 605.2 202.817 605.559 203.762 606.279C204.708 606.998 205.181 608.057 205.181 609.455C205.181 610.873 204.646 611.983 203.577 612.784C202.529 613.566 200.916 613.956 198.737 613.956H190.875ZM193.773 611.674H198.521C199.754 611.674 200.679 611.49 201.296 611.12C201.913 610.729 202.221 610.112 202.221 609.27C202.221 608.406 201.933 607.779 201.358 607.389C200.803 606.978 199.919 606.772 198.706 606.772H193.773V611.674ZM193.773 604.645H198.213C199.343 604.645 200.196 604.439 200.772 604.028C201.368 603.597 201.666 603 201.666 602.24C201.666 601.459 201.368 600.873 200.772 600.483C200.196 600.092 199.343 599.897 198.213 599.897H193.773V604.645ZM213.051 613.956V599.434L213.791 600.205H207.069V597.615H221.992V600.205H215.302L216.011 599.434V613.956H213.051ZM231.295 614.141C229.651 614.141 228.191 613.781 226.917 613.062C225.642 612.343 224.635 611.356 223.895 610.102C223.155 608.828 222.785 607.389 222.785 605.786C222.785 604.162 223.155 602.723 223.895 601.469C224.635 600.215 225.642 599.239 226.917 598.54C228.191 597.821 229.651 597.461 231.295 597.461C232.919 597.461 234.368 597.821 235.642 598.54C236.937 599.239 237.944 600.215 238.664 601.469C239.404 602.702 239.774 604.141 239.774 605.786C239.774 607.409 239.404 608.848 238.664 610.102C237.944 611.356 236.937 612.343 235.642 613.062C234.368 613.781 232.919 614.141 231.295 614.141ZM231.295 611.551C232.343 611.551 233.278 611.315 234.101 610.842C234.943 610.369 235.601 609.701 236.074 608.838C236.547 607.954 236.783 606.937 236.783 605.786C236.783 604.614 236.547 603.607 236.074 602.764C235.601 601.901 234.943 601.233 234.101 600.76C233.278 600.287 232.343 600.051 231.295 600.051C230.247 600.051 229.311 600.287 228.489 600.76C227.667 601.233 227.009 601.901 226.516 602.764C226.023 603.607 225.776 604.614 225.776 605.786C225.776 606.937 226.023 607.954 226.516 608.838C227.009 609.701 227.667 610.369 228.489 610.842C229.311 611.315 230.247 611.551 231.295 611.551ZM252.711 614.141C251.355 614.141 250.111 613.833 248.981 613.216C247.871 612.579 246.977 611.644 246.298 610.41C245.641 609.177 245.312 607.636 245.312 605.786C245.312 603.936 245.63 602.394 246.268 601.161C246.925 599.928 247.809 599.003 248.919 598.386C250.05 597.769 251.314 597.461 252.711 597.461C254.315 597.461 255.733 597.81 256.966 598.509C258.2 599.208 259.176 600.184 259.895 601.438C260.615 602.672 260.974 604.121 260.974 605.786C260.974 607.451 260.615 608.91 259.895 610.164C259.176 611.418 258.2 612.394 256.966 613.093C255.733 613.792 254.315 614.141 252.711 614.141ZM244.048 619.937V597.615H246.884V602.024L246.699 605.816L247.008 609.609V619.937H244.048ZM252.465 611.551C253.513 611.551 254.448 611.315 255.271 610.842C256.113 610.369 256.771 609.701 257.244 608.838C257.737 607.954 257.984 606.937 257.984 605.786C257.984 604.614 257.737 603.607 257.244 602.764C256.771 601.901 256.113 601.233 255.271 600.76C254.448 600.287 253.513 600.051 252.465 600.051C251.437 600.051 250.502 600.287 249.659 600.76C248.837 601.233 248.179 601.901 247.686 602.764C247.213 603.607 246.977 604.614 246.977 605.786C246.977 606.937 247.213 607.954 247.686 608.838C248.179 609.701 248.837 610.369 249.659 610.842C250.502 611.315 251.437 611.551 252.465 611.551ZM265.922 601.685C265.347 601.685 264.853 601.49 264.442 601.099C264.031 600.688 263.826 600.174 263.826 599.558C263.826 598.941 264.031 598.437 264.442 598.047C264.853 597.656 265.347 597.461 265.922 597.461C266.477 597.461 266.95 597.656 267.341 598.047C267.752 598.437 267.957 598.941 267.957 599.558C267.957 600.174 267.752 600.688 267.341 601.099C266.95 601.49 266.477 601.685 265.922 601.685ZM265.922 614.141C265.347 614.141 264.853 613.946 264.442 613.555C264.031 613.144 263.826 612.63 263.826 612.014C263.826 611.397 264.031 610.893 264.442 610.503C264.853 610.112 265.347 609.917 265.922 609.917C266.477 609.917 266.95 610.112 267.341 610.503C267.752 610.893 267.957 611.397 267.957 612.014C267.957 612.63 267.752 613.144 267.341 613.555C266.95 613.946 266.477 614.141 265.922 614.141ZM295.555 613.956L287.724 603.319L290.221 601.777L299.07 613.956H295.555ZM281.033 613.956V592.374H284.055V613.956H281.033ZM283.13 604.46V601.747H290.129V604.46H283.13ZM290.499 603.504L287.662 603.072L295.401 592.374H298.7L290.499 603.504ZM308.525 614.141C306.881 614.141 305.421 613.781 304.147 613.062C302.873 612.343 301.865 611.356 301.126 610.102C300.386 608.828 300.016 607.389 300.016 605.786C300.016 604.162 300.386 602.723 301.126 601.469C301.865 600.215 302.873 599.239 304.147 598.54C305.421 597.821 306.881 597.461 308.525 597.461C310.149 597.461 311.598 597.821 312.872 598.54C314.167 599.239 315.175 600.215 315.894 601.469C316.634 602.702 317.004 604.141 317.004 605.786C317.004 607.409 316.634 608.848 315.894 610.102C315.175 611.356 314.167 612.343 312.872 613.062C311.598 613.781 310.149 614.141 308.525 614.141ZM308.525 611.551C309.573 611.551 310.509 611.315 311.331 610.842C312.174 610.369 312.831 609.701 313.304 608.838C313.777 607.954 314.013 606.937 314.013 605.786C314.013 604.614 313.777 603.607 313.304 602.764C312.831 601.901 312.174 601.233 311.331 600.76C310.509 600.287 309.573 600.051 308.525 600.051C307.477 600.051 306.542 600.287 305.719 600.76C304.897 601.233 304.24 601.901 303.746 602.764C303.253 603.607 303.006 604.614 303.006 605.786C303.006 606.937 303.253 607.954 303.746 608.838C304.24 609.701 304.897 610.369 305.719 610.842C306.542 611.315 307.477 611.551 308.525 611.551ZM321.278 613.956V597.615H324.238V604.552H333.549V597.615H336.509V613.956H333.549V607.111H324.238V613.956H321.278ZM349.818 603.165C351.894 603.185 353.477 603.658 354.566 604.583C355.656 605.508 356.2 606.813 356.2 608.499C356.2 610.267 355.604 611.633 354.412 612.599C353.22 613.545 351.534 614.007 349.356 613.987L342.264 613.956V597.615H345.224V603.134L349.818 603.165ZM349.109 611.736C350.445 611.757 351.452 611.49 352.13 610.935C352.829 610.38 353.179 609.557 353.179 608.468C353.179 607.399 352.84 606.618 352.161 606.125C351.483 605.631 350.465 605.375 349.109 605.354L345.224 605.292V611.705L349.109 611.736ZM368.772 613.956V592.374H371.3L380.981 608.684H379.625L389.183 592.374H391.711L391.742 613.956H388.782L388.751 597.029H389.46L380.951 611.335H379.532L370.961 597.029H371.732V613.956H368.772ZM398.799 620.122C398.018 620.122 397.257 619.989 396.517 619.722C395.777 619.475 395.14 619.105 394.606 618.612L395.87 616.392C396.281 616.782 396.733 617.08 397.226 617.286C397.72 617.491 398.244 617.594 398.799 617.594C399.518 617.594 400.114 617.409 400.587 617.039C401.06 616.669 401.502 616.012 401.913 615.066L402.93 612.815L403.239 612.445L409.652 597.615H412.55L404.626 615.59C404.153 616.741 403.619 617.646 403.023 618.303C402.447 618.961 401.81 619.424 401.111 619.691C400.412 619.979 399.642 620.122 398.799 620.122ZM402.684 614.48L395.222 597.615H398.306L404.657 612.168L402.684 614.48ZM425.898 612.569V600.205H418.807L418.653 603.35C418.612 604.378 418.54 605.375 418.437 606.341C418.355 607.286 418.211 608.16 418.005 608.961C417.82 609.763 417.543 610.421 417.173 610.935C416.803 611.448 416.31 611.767 415.693 611.89L412.764 611.366C413.401 611.387 413.915 611.181 414.306 610.75C414.696 610.297 414.994 609.681 415.2 608.9C415.426 608.119 415.59 607.235 415.693 606.248C415.796 605.241 415.878 604.203 415.94 603.134L416.186 597.615H428.858V612.569H425.898ZM412.117 617.748V611.366H431.356V617.748H428.581V613.956H414.922V617.748H412.117ZM443.875 614.141C442.519 614.141 441.275 613.833 440.145 613.216C439.035 612.579 438.141 611.644 437.462 610.41C436.805 609.177 436.476 607.636 436.476 605.786C436.476 603.936 436.794 602.394 437.431 601.161C438.089 599.928 438.973 599.003 440.083 598.386C441.213 597.769 442.478 597.461 443.875 597.461C445.479 597.461 446.897 597.81 448.13 598.509C449.363 599.208 450.34 600.184 451.059 601.438C451.779 602.672 452.138 604.121 452.138 605.786C452.138 607.451 451.779 608.91 451.059 610.164C450.34 611.418 449.363 612.394 448.13 613.093C446.897 613.792 445.479 614.141 443.875 614.141ZM435.212 619.937V597.615H438.048V602.024L437.863 605.816L438.171 609.609V619.937H435.212ZM443.629 611.551C444.677 611.551 445.612 611.315 446.434 610.842C447.277 610.369 447.935 609.701 448.408 608.838C448.901 607.954 449.148 606.937 449.148 605.786C449.148 604.614 448.901 603.607 448.408 602.764C447.935 601.901 447.277 601.233 446.434 600.76C445.612 600.287 444.677 600.051 443.629 600.051C442.601 600.051 441.666 600.287 440.823 600.76C440.001 601.233 439.343 601.901 438.85 602.764C438.377 603.607 438.141 604.614 438.141 605.786C438.141 606.937 438.377 607.954 438.85 608.838C439.343 609.701 440.001 610.369 440.823 610.842C441.666 611.315 442.601 611.551 443.629 611.551ZM463.715 614.141C461.968 614.141 460.426 613.781 459.09 613.062C457.775 612.343 456.747 611.356 456.007 610.102C455.288 608.848 454.928 607.409 454.928 605.786C454.928 604.162 455.277 602.723 455.976 601.469C456.696 600.215 457.672 599.239 458.905 598.54C460.159 597.821 461.567 597.461 463.129 597.461C464.712 597.461 466.11 597.81 467.322 598.509C468.535 599.208 469.48 600.195 470.159 601.469C470.858 602.723 471.207 604.193 471.207 605.878C471.207 606.001 471.197 606.145 471.176 606.31C471.176 606.474 471.166 606.628 471.145 606.772H457.24V604.645H469.604L468.401 605.385C468.422 604.336 468.206 603.401 467.754 602.579C467.302 601.757 466.675 601.12 465.873 600.668C465.092 600.195 464.177 599.958 463.129 599.958C462.101 599.958 461.187 600.195 460.385 600.668C459.583 601.12 458.957 601.767 458.504 602.61C458.052 603.432 457.826 604.378 457.826 605.446V605.94C457.826 607.029 458.073 608.005 458.566 608.869C459.08 609.712 459.789 610.369 460.693 610.842C461.598 611.315 462.636 611.551 463.807 611.551C464.773 611.551 465.647 611.387 466.428 611.058C467.23 610.729 467.929 610.236 468.525 609.578L470.159 611.49C469.419 612.353 468.494 613.011 467.384 613.463C466.295 613.915 465.072 614.141 463.715 614.141ZM475.799 613.956V597.615H478.759V609.516L488.779 597.615H491.461V613.956H488.502V602.055L478.512 613.956H475.799ZM483.445 595.488C481.945 595.488 480.763 595.128 479.899 594.409C479.057 593.669 478.625 592.61 478.605 591.233H480.609C480.629 592.014 480.886 592.631 481.379 593.083C481.893 593.535 482.572 593.761 483.414 593.761C484.257 593.761 484.935 593.535 485.449 593.083C485.963 592.631 486.23 592.014 486.251 591.233H488.317C488.296 592.61 487.854 593.669 486.991 594.409C486.128 595.128 484.946 595.488 483.445 595.488ZM508.059 611.366L507.381 612.137V597.615H510.341V612.137L509.601 611.366H518.234L517.525 612.137V597.615H520.485V613.956H497.207V597.615H500.166V612.137L499.457 611.366H508.059ZM526.232 613.956V597.615H529.192V609.516L539.212 597.615H541.895V613.956H538.935V602.055L528.945 613.956H526.232ZM547.64 613.956V597.615H550.599V609.516L560.62 597.615H563.302V613.956H560.342V602.055L550.353 613.956H547.64ZM555.286 595.488C553.785 595.488 552.604 595.128 551.74 594.409C550.898 593.669 550.466 592.61 550.445 591.233H552.449C552.47 592.014 552.727 592.631 553.22 593.083C553.734 593.535 554.412 593.761 555.255 593.761C556.098 593.761 556.776 593.535 557.29 593.083C557.804 592.631 558.071 592.014 558.092 591.233H560.157C560.137 592.61 559.695 593.669 558.832 594.409C557.968 595.128 556.786 595.488 555.286 595.488Z" fill="white"/>
<path d="M305.347 661.937V653.304H306.568V659.963L311.674 653.304H312.809V661.937H311.6V655.289L306.482 661.937H305.347ZM317.214 662.023C316.721 662.023 316.236 661.961 315.759 661.838C315.29 661.706 314.871 661.521 314.501 661.283L314.859 660.383C315.171 660.58 315.529 660.736 315.932 660.851C316.335 660.958 316.742 661.012 317.153 661.012C317.531 661.012 317.856 660.966 318.127 660.876C318.406 660.785 318.62 660.662 318.768 660.506C318.916 660.341 318.99 660.152 318.99 659.939C318.99 659.634 318.855 659.4 318.583 659.236C318.312 659.071 317.934 658.989 317.449 658.989H316.265V658.138H317.375C317.662 658.138 317.913 658.105 318.127 658.039C318.341 657.974 318.505 657.875 318.62 657.743C318.744 657.604 318.805 657.443 318.805 657.262C318.805 657.065 318.735 656.897 318.596 656.757C318.456 656.617 318.258 656.51 318.004 656.436C317.757 656.362 317.465 656.325 317.128 656.325C316.799 656.333 316.462 656.379 316.117 656.461C315.78 656.543 315.434 656.67 315.081 656.843L314.76 655.918C315.155 655.729 315.541 655.585 315.919 655.486C316.306 655.38 316.688 655.322 317.066 655.314C317.634 655.297 318.139 655.363 318.583 655.511C319.027 655.651 319.377 655.856 319.632 656.128C319.895 656.399 320.026 656.72 320.026 657.09C320.026 657.402 319.928 657.682 319.73 657.928C319.533 658.167 319.27 658.356 318.941 658.496C318.612 658.635 318.234 658.705 317.806 658.705L317.856 658.422C318.587 658.422 319.163 658.566 319.582 658.853C320.002 659.141 320.211 659.532 320.211 660.025C320.211 660.42 320.08 660.769 319.817 661.073C319.553 661.369 319.196 661.604 318.744 661.776C318.3 661.941 317.79 662.023 317.214 662.023ZM326.476 661.382V656.436H323.639L323.577 657.694C323.561 658.105 323.532 658.504 323.491 658.89C323.458 659.269 323.401 659.618 323.318 659.939C323.244 660.259 323.133 660.522 322.985 660.728C322.837 660.933 322.64 661.061 322.393 661.11L321.222 660.901C321.477 660.909 321.682 660.827 321.838 660.654C321.995 660.473 322.114 660.226 322.196 659.914C322.287 659.602 322.352 659.248 322.393 658.853C322.434 658.45 322.467 658.035 322.492 657.608L322.591 655.4H327.659V661.382H326.476ZM320.963 663.453V660.901H328.658V663.453H327.548V661.937H322.085V663.453H320.963ZM334.209 661.937V660.555L334.147 660.296V657.941C334.147 657.439 333.999 657.053 333.703 656.781C333.416 656.502 332.98 656.362 332.396 656.362C332.01 656.362 331.631 656.428 331.261 656.559C330.891 656.683 330.579 656.851 330.324 657.065L329.831 656.177C330.168 655.906 330.571 655.7 331.039 655.56C331.516 655.412 332.014 655.338 332.532 655.338C333.428 655.338 334.119 655.556 334.604 655.992C335.089 656.428 335.331 657.094 335.331 657.99V661.937H334.209ZM332.063 662.011C331.578 662.011 331.15 661.928 330.78 661.764C330.419 661.599 330.139 661.373 329.942 661.086C329.744 660.79 329.646 660.457 329.646 660.087C329.646 659.733 329.728 659.412 329.892 659.125C330.065 658.837 330.341 658.607 330.719 658.434C331.105 658.261 331.623 658.175 332.273 658.175H334.345V659.026H332.322C331.73 659.026 331.331 659.125 331.126 659.322C330.92 659.519 330.817 659.758 330.817 660.037C330.817 660.358 330.945 660.617 331.2 660.814C331.455 661.003 331.808 661.098 332.26 661.098C332.704 661.098 333.091 660.999 333.42 660.802C333.757 660.605 333.999 660.317 334.147 659.939L334.382 660.753C334.225 661.139 333.95 661.447 333.555 661.678C333.161 661.9 332.663 662.011 332.063 662.011ZM338.758 661.937V656.128L339.054 656.436H336.366V655.4H342.335V656.436H339.658L339.942 656.128V661.937H338.758ZM346.167 662.011C345.468 662.011 344.851 661.867 344.317 661.579C343.791 661.291 343.38 660.896 343.084 660.395C342.796 659.893 342.652 659.318 342.652 658.668C342.652 658.019 342.792 657.443 343.071 656.942C343.359 656.44 343.749 656.05 344.243 655.77C344.744 655.482 345.308 655.338 345.932 655.338C346.565 655.338 347.125 655.478 347.61 655.758C348.095 656.037 348.473 656.432 348.744 656.942C349.024 657.443 349.164 658.031 349.164 658.705C349.164 658.755 349.159 658.812 349.151 658.878C349.151 658.944 349.147 659.005 349.139 659.063H343.577V658.212H348.522L348.041 658.508C348.05 658.089 347.963 657.715 347.782 657.386C347.601 657.057 347.351 656.802 347.03 656.621C346.718 656.432 346.352 656.337 345.932 656.337C345.521 656.337 345.155 656.432 344.835 656.621C344.514 656.802 344.263 657.061 344.082 657.398C343.902 657.727 343.811 658.105 343.811 658.533V658.73C343.811 659.166 343.91 659.556 344.107 659.902C344.313 660.239 344.596 660.502 344.958 660.691C345.32 660.88 345.735 660.975 346.204 660.975C346.59 660.975 346.94 660.909 347.252 660.777C347.573 660.646 347.852 660.448 348.091 660.185L348.744 660.95C348.448 661.295 348.078 661.558 347.634 661.739C347.199 661.92 346.709 662.011 346.167 662.011ZM349.807 661.924L349.881 660.925C349.938 660.933 349.992 660.942 350.041 660.95C350.09 660.958 350.135 660.962 350.177 660.962C350.44 660.962 350.645 660.872 350.793 660.691C350.949 660.51 351.065 660.272 351.139 659.976C351.213 659.671 351.266 659.33 351.299 658.952C351.332 658.574 351.356 658.196 351.373 657.817L351.484 655.4H356.503V661.937H355.319V656.091L355.603 656.436H352.249L352.52 656.078L352.433 657.891C352.409 658.467 352.364 659.005 352.298 659.507C352.232 660.009 352.129 660.448 351.99 660.827C351.858 661.205 351.673 661.501 351.435 661.715C351.204 661.928 350.904 662.035 350.534 662.035C350.427 662.035 350.312 662.023 350.189 661.998C350.074 661.982 349.946 661.957 349.807 661.924ZM361.814 657.62C362.645 657.628 363.278 657.817 363.713 658.187C364.149 658.557 364.367 659.079 364.367 659.754C364.367 660.461 364.129 661.007 363.652 661.394C363.175 661.772 362.501 661.957 361.629 661.949L358.793 661.937V655.4H359.977V657.608L361.814 657.62ZM361.53 661.049C362.065 661.057 362.468 660.95 362.739 660.728C363.019 660.506 363.158 660.177 363.158 659.741C363.158 659.314 363.023 659.001 362.751 658.804C362.48 658.607 362.073 658.504 361.53 658.496L359.977 658.471V661.036L361.53 661.049ZM368.735 662.011C368.069 662.011 367.473 661.867 366.947 661.579C366.429 661.291 366.022 660.896 365.726 660.395C365.43 659.893 365.282 659.318 365.282 658.668C365.282 658.019 365.43 657.443 365.726 656.942C366.022 656.44 366.429 656.05 366.947 655.77C367.473 655.482 368.069 655.338 368.735 655.338C369.327 655.338 369.853 655.458 370.314 655.696C370.782 655.926 371.144 656.272 371.399 656.732L370.499 657.312C370.285 656.991 370.022 656.757 369.709 656.609C369.405 656.453 369.076 656.374 368.723 656.374C368.295 656.374 367.913 656.469 367.576 656.658C367.239 656.847 366.972 657.114 366.774 657.46C366.577 657.797 366.478 658.2 366.478 658.668C366.478 659.137 366.577 659.544 366.774 659.889C366.972 660.235 367.239 660.502 367.576 660.691C367.913 660.88 368.295 660.975 368.723 660.975C369.076 660.975 369.405 660.901 369.709 660.753C370.022 660.596 370.285 660.358 370.499 660.037L371.399 660.605C371.144 661.057 370.782 661.406 370.314 661.653C369.853 661.891 369.327 662.011 368.735 662.011ZM374.143 661.937V656.128L374.439 656.436H371.75V655.4H377.719V656.436H375.043L375.326 656.128V661.937H374.143ZM378.93 661.937V655.4H381.964C382.728 655.4 383.328 655.548 383.764 655.844C384.208 656.132 384.43 656.543 384.43 657.077C384.43 657.612 384.22 658.027 383.801 658.323C383.39 658.611 382.843 658.755 382.161 658.755L382.346 658.434C383.127 658.434 383.707 658.578 384.085 658.866C384.463 659.153 384.652 659.577 384.652 660.136C384.652 660.703 384.438 661.147 384.011 661.468C383.591 661.78 382.946 661.937 382.075 661.937H378.93ZM380.089 661.024H381.988C382.481 661.024 382.851 660.95 383.098 660.802C383.345 660.646 383.468 660.399 383.468 660.062C383.468 659.717 383.353 659.466 383.123 659.31C382.901 659.145 382.547 659.063 382.062 659.063H380.089V661.024ZM380.089 658.212H381.865C382.317 658.212 382.658 658.13 382.888 657.965C383.127 657.793 383.246 657.554 383.246 657.25C383.246 656.938 383.127 656.703 382.888 656.547C382.658 656.391 382.317 656.313 381.865 656.313H380.089V658.212ZM389.305 662.011C388.647 662.011 388.063 661.867 387.553 661.579C387.044 661.291 386.641 660.896 386.345 660.395C386.049 659.885 385.901 659.31 385.901 658.668C385.901 658.019 386.049 657.443 386.345 656.942C386.641 656.44 387.044 656.05 387.553 655.77C388.063 655.482 388.647 655.338 389.305 655.338C389.954 655.338 390.534 655.482 391.044 655.77C391.562 656.05 391.964 656.44 392.252 656.942C392.548 657.435 392.696 658.011 392.696 658.668C392.696 659.318 392.548 659.893 392.252 660.395C391.964 660.896 391.562 661.291 391.044 661.579C390.534 661.867 389.954 662.011 389.305 662.011ZM389.305 660.975C389.724 660.975 390.098 660.88 390.427 660.691C390.764 660.502 391.027 660.235 391.216 659.889C391.405 659.536 391.5 659.129 391.5 658.668C391.5 658.2 391.405 657.797 391.216 657.46C391.027 657.114 390.764 656.847 390.427 656.658C390.098 656.469 389.724 656.374 389.305 656.374C388.885 656.374 388.511 656.469 388.182 656.658C387.854 656.847 387.59 657.114 387.393 657.46C387.196 657.797 387.097 658.2 387.097 658.668C387.097 659.129 387.196 659.536 387.393 659.889C387.59 660.235 387.854 660.502 388.182 660.691C388.511 660.88 388.885 660.975 389.305 660.975ZM397.027 661.937V661.098L400.542 657.706C400.854 657.41 401.085 657.151 401.233 656.929C401.389 656.699 401.492 656.49 401.541 656.3C401.599 656.103 401.627 655.914 401.627 655.733C401.627 655.289 401.471 654.94 401.159 654.685C400.846 654.43 400.39 654.303 399.79 654.303C399.329 654.303 398.914 654.381 398.544 654.537C398.174 654.685 397.854 654.919 397.582 655.24L396.744 654.512C397.072 654.093 397.512 653.772 398.063 653.55C398.622 653.32 399.235 653.205 399.901 653.205C400.501 653.205 401.023 653.304 401.467 653.501C401.911 653.69 402.252 653.965 402.491 654.327C402.737 654.689 402.861 655.117 402.861 655.61C402.861 655.889 402.824 656.165 402.75 656.436C402.676 656.707 402.536 656.995 402.33 657.299C402.125 657.604 401.829 657.945 401.442 658.323L398.31 661.345L398.014 660.864H403.231V661.937H397.027ZM407.76 662.035C407.086 662.035 406.481 661.863 405.947 661.517C405.421 661.172 405.001 660.67 404.689 660.013C404.385 659.355 404.233 658.557 404.233 657.62C404.233 656.683 404.385 655.885 404.689 655.228C405.001 654.57 405.421 654.068 405.947 653.723C406.481 653.378 407.086 653.205 407.76 653.205C408.426 653.205 409.026 653.378 409.56 653.723C410.095 654.068 410.514 654.57 410.818 655.228C411.122 655.885 411.275 656.683 411.275 657.62C411.275 658.557 411.122 659.355 410.818 660.013C410.514 660.67 410.095 661.172 409.56 661.517C409.026 661.863 408.426 662.035 407.76 662.035ZM407.76 660.938C408.212 660.938 408.607 660.814 408.944 660.568C409.289 660.321 409.556 659.951 409.745 659.458C409.943 658.964 410.041 658.352 410.041 657.62C410.041 656.888 409.943 656.276 409.745 655.782C409.556 655.289 409.289 654.919 408.944 654.673C408.607 654.426 408.212 654.303 407.76 654.303C407.308 654.303 406.909 654.426 406.563 654.673C406.218 654.919 405.947 655.289 405.749 655.782C405.56 656.276 405.466 656.888 405.466 657.62C405.466 658.352 405.56 658.964 405.749 659.458C405.947 659.951 406.218 660.321 406.563 660.568C406.909 660.814 407.308 660.938 407.76 660.938ZM412.323 661.937V661.098L415.838 657.706C416.15 657.41 416.38 657.151 416.528 656.929C416.684 656.699 416.787 656.49 416.837 656.3C416.894 656.103 416.923 655.914 416.923 655.733C416.923 655.289 416.767 654.94 416.454 654.685C416.142 654.43 415.685 654.303 415.085 654.303C414.625 654.303 414.21 654.381 413.84 654.537C413.47 654.685 413.149 654.919 412.878 655.24L412.039 654.512C412.368 654.093 412.808 653.772 413.359 653.55C413.918 653.32 414.53 653.205 415.196 653.205C415.796 653.205 416.319 653.304 416.763 653.501C417.207 653.69 417.548 653.965 417.786 654.327C418.033 654.689 418.156 655.117 418.156 655.61C418.156 655.889 418.119 656.165 418.045 656.436C417.971 656.707 417.831 656.995 417.626 657.299C417.42 657.604 417.124 657.945 416.738 658.323L413.605 661.345L413.309 660.864H418.526V661.937H412.323ZM422.327 662.035C421.719 662.035 421.127 661.941 420.551 661.752C419.984 661.562 419.52 661.308 419.158 660.987L419.725 660.013C420.013 660.284 420.387 660.506 420.847 660.679C421.308 660.851 421.797 660.938 422.315 660.938C422.973 660.938 423.478 660.798 423.832 660.518C424.185 660.239 424.362 659.865 424.362 659.396C424.362 659.075 424.284 658.796 424.128 658.557C423.972 658.319 423.7 658.138 423.314 658.015C422.936 657.883 422.414 657.817 421.748 657.817H419.787L420.243 653.304H425.115V654.377H420.699L421.341 653.772L420.983 657.336L420.342 656.744H422.007C422.87 656.744 423.565 656.855 424.091 657.077C424.617 657.299 424.999 657.608 425.238 658.002C425.476 658.389 425.595 658.837 425.595 659.347C425.595 659.84 425.476 660.292 425.238 660.703C424.999 661.106 424.638 661.431 424.153 661.678C423.676 661.916 423.067 662.035 422.327 662.035Z" fill="white"/>
</g>
<defs>
<clipPath id="clip0_1324_21">
<rect width="719" height="719" fill="white"/>
</clipPath>
</defs>
</svg>
