<svg width="247" height="538" viewBox="0 0 247 538" fill="none" xmlns="http://www.w3.org/2000/svg">
<mask id="path-1-inside-1_1061_25" fill="white">
<path fill-rule="evenodd" clip-rule="evenodd" d="M247 0H159V175H0V538H191V470H247V0Z"/>
</mask>
<path d="M159 0V-2.5H156.5V0H159ZM247 0H249.5V-2.5H247V0ZM159 175V177.5H161.5V175H159ZM0 175V172.5H-2.5V175H0ZM0 538H-2.5V540.5H0V538ZM191 538V540.5H193.5V538H191ZM191 470V467.5H188.5V470H191ZM247 470V472.5H249.5V470H247ZM156.5 0V14.5833H161.5V0H156.5ZM156.5 43.75V72.9167H161.5V43.75H156.5ZM156.5 102.083V131.25H161.5V102.083H156.5ZM156.5 160.417V175H161.5V160.417H156.5ZM159 172.5H145.75V177.5H159V172.5ZM119.25 172.5H92.75V177.5H119.25V172.5ZM66.25 172.5H39.75V177.5H66.25V172.5ZM13.25 172.5H0V177.5H13.25V172.5ZM-2.5 175V190.125H2.5V175H-2.5ZM-2.5 220.375V250.625H2.5V220.375H-2.5ZM-2.5 280.875V311.125H2.5V280.875H-2.5ZM-2.5 341.375V371.625H2.5V341.375H-2.5ZM-2.5 401.875V432.125H2.5V401.875H-2.5ZM-2.5 462.375V492.625H2.5V462.375H-2.5ZM-2.5 522.875V538H2.5V522.875H-2.5ZM0 540.5H15.9167V535.5H0V540.5ZM47.75 540.5H79.5833V535.5H47.75V540.5ZM111.417 540.5H143.25V535.5H111.417V540.5ZM175.083 540.5H191V535.5H175.083V540.5ZM193.5 538V521H188.5V538H193.5ZM193.5 487V470H188.5V487H193.5ZM191 472.5H205V467.5H191V472.5ZM233 472.5H247V467.5H233V472.5ZM249.5 470V455.312H244.5V470H249.5ZM249.5 425.938V396.562H244.5V425.938H249.5ZM249.5 367.188V337.812H244.5V367.188H249.5ZM249.5 308.438V279.062H244.5V308.438H249.5ZM249.5 249.688V220.312H244.5V249.688H249.5ZM249.5 190.938V161.562H244.5V190.938H249.5ZM249.5 132.188V102.812H244.5V132.188H249.5ZM249.5 73.4375V44.0625H244.5V73.4375H249.5ZM249.5 14.6875V0H244.5V14.6875H249.5ZM247 -2.5H225V2.5H247V-2.5ZM181 -2.5H159V2.5H181V-2.5ZM159 0V-5H154V0H159ZM247 0H252V-5H247V0ZM159 175V180H164V175H159ZM0 175V170H-5V175H0ZM0 538H-5V543H0V538ZM191 538V543H196V538H191ZM191 470V465H186V470H191ZM247 470V475H252V470H247ZM154 0V14.5833H164V0H154ZM154 43.75V72.9167H164V43.75H154ZM154 102.083V131.25H164V102.083H154ZM154 160.417V175H164V160.417H154ZM159 170H145.75V180H159V170ZM119.25 170H92.75V180H119.25V170ZM66.25 170H39.75V180H66.25V170ZM13.25 170H0V180H13.25V170ZM-5 175V190.125H5V175H-5ZM-5 220.375V250.625H5V220.375H-5ZM-5 280.875V311.125H5V280.875H-5ZM-5 341.375V371.625H5V341.375H-5ZM-5 401.875V432.125H5V401.875H-5ZM-5 462.375V492.625H5V462.375H-5ZM-5 522.875V538H5V522.875H-5ZM0 543H15.9167V533H0V543ZM47.75 543H79.5833V533H47.75V543ZM111.417 543H143.25V533H111.417V543ZM175.083 543H191V533H175.083V543ZM196 538V521H186V538H196ZM196 487V470H186V487H196ZM191 475H205V465H191V475ZM233 475H247V465H233V475ZM252 470V455.312H242V470H252ZM252 425.938V396.562H242V425.938H252ZM252 367.188V337.812H242V367.188H252ZM252 308.438V279.062H242V308.438H252ZM252 249.688V220.312H242V249.688H252ZM252 190.938V161.562H242V190.938H252ZM252 132.188V102.812H242V132.188H252ZM252 73.4375V44.0625H242V73.4375H252ZM252 14.6875V0H242V14.6875H252ZM247 -5H225V5H247V-5ZM181 -5H159V5H181V-5Z" fill="black" mask="url(#path-1-inside-1_1061_25)"/>
</svg>
